<svg viewBox="0 0 24 24" width="232" height="232" xmlns="http://www.w3.org/2000/svg">
    <g id="PROJECTS">
        <path fill="#01cc00" d="m23 17h-22c-.552 0-1 .447-1 1s.448 1 1 1h22c.552 0 1-.447 1-1s-.448-1-1-1z"/>
        <path fill="#01cc00" d="m6.88 7h-2.88v10h-2v-10c0-1.1.9-2 2-2h3.35c-.44.57-.62 1.3-.47 2z"/>
        <path fill="#01cc00" d="m22 8.51v8.49h-2v-3.77c.46-1.02.75-2.19.88-3.46.4-.39.77-.81 1.12-1.26z"/>
        <path fill="#01cc00" d="m22.89.272c-.096-.096-.239-.151-.363-.146-2.827.053-6.125 1.703-8.219 4.1-2.265.081-4.156.764-5.335 1.943-.128.127-.177.314-.128.488.049.175.189.309.365.351l2.129.51-.013.014c-.178.197-.17.5.018.688l3.597 3.597c.097.098.225.146.354.146.12 0 .239-.042.334-.128l.014-.013.51 2.129c.042.176.176.316.351.365.045.013.09.019.136.019.131 0 .258-.051.354-.146 1.18-1.18 1.862-3.07 1.943-5.336 2.4-2.101 4.047-5.395 4.1-8.219.002-.135-.051-.266-.147-.362z"/>
        <path fill="#01cc00" d="m9.752 10.472c-.671.671-1.53 3.458-1.695 4.01-.053.176-.004.367.125.497.095.095.223.146.354.146.048 0 .096-.007.144-.021.552-.165 3.338-1.023 4.01-1.695.81-.81.81-2.127 0-2.938-.812-.81-2.129-.809-2.938.001z"/>
    </g>
</svg>
